<svg height="60" width="240" xmlns="http://www.w3.org/2000/svg"><defs><pattern height="4" id="w83jmhswxec" patternUnits="userSpaceOnUse" width="4" x="0" y="0"><g><rect fill="transparent" height="4" width="4"/><circle cx="1" cy="1" fill="#098551" fill-opacity="0.2" r="1"/></g></pattern></defs><g><path d="M2,12.382L2.492,12.201C2.983,12.021,3.967,11.66,4.95,11.8C5.933,11.94,6.917,12.581,7.9,12.52C8.883,12.459,9.867,11.697,10.85,9.927C11.833,8.157,12.817,5.379,13.8,4.903C14.783,4.428,15.767,6.255,16.75,8.667C17.733,11.079,18.717,14.076,19.7,15.086C20.683,16.095,21.667,15.117,22.65,15.515C23.633,15.914,24.617,17.688,25.6,18.293C26.583,18.898,27.567,18.334,28.55,20.05C29.533,21.766,30.517,25.763,31.5,26.295C32.483,26.827,33.467,23.894,34.45,22.609C35.433,21.325,36.417,21.689,37.4,23.231C38.383,24.773,39.367,27.493,40.35,28.773C41.333,30.053,42.317,29.893,43.3,30.463C44.283,31.033,45.267,32.334,46.25,31.482C47.233,30.63,48.217,27.625,49.2,25.953C50.183,24.281,51.167,23.942,52.15,24.75C53.133,25.557,54.117,27.511,55.1,27.823C56.083,28.136,57.067,26.806,58.05,25.979C59.033,25.151,60.017,24.825,61,25.231C61.983,25.637,62.967,26.774,63.95,27.139C64.933,27.504,65.917,27.097,66.9,26.887C67.883,26.677,68.867,26.663,69.85,27.872C70.833,29.082,71.817,31.514,72.8,32.93C73.783,34.345,74.767,34.743,75.75,33.953C76.733,33.162,77.717,31.182,78.7,30.495C79.683,29.808,80.667,30.415,81.65,30.905C82.633,31.395,83.617,31.769,84.6,31.583C85.583,31.397,86.567,30.651,87.55,31.273C88.533,31.895,89.517,33.884,90.5,34.415C91.483,34.947,92.467,34.02,93.45,33.937C94.433,33.854,95.417,34.616,96.4,33.727C97.383,32.839,98.367,30.301,99.35,27.674C100.333,25.048,101.317,22.334,102.3,20.809C103.283,19.285,104.267,18.95,105.25,19.85C106.233,20.751,107.217,22.886,108.2,24.113C109.183,25.339,110.167,25.657,111.15,24.343C112.133,23.028,113.117,20.082,114.1,20.869C115.083,21.655,116.067,26.174,117.05,28.746C118.033,31.319,119.017,31.944,120,31.428C120.983,30.913,121.967,29.256,122.95,28.545C123.933,27.833,124.917,28.067,125.9,33.133C126.883,38.2,127.867,48.1,128.85,50.841C129.833,53.583,130.817,49.165,131.8,47.049C132.783,44.934,133.767,45.12,134.75,44.792C135.733,44.463,136.717,43.62,137.7,42.288C138.683,40.956,139.667,39.135,140.65,40.195C141.633,41.255,142.617,45.196,143.6,45.587C144.583,45.978,145.567,42.819,146.55,42.429C147.533,42.038,148.517,44.416,149.5,43.444C150.483,42.472,151.467,38.149,152.45,37.784C153.433,37.419,154.417,41.011,155.4,42.226C156.383,43.441,157.367,42.278,158.35,40.584C159.333,38.889,160.317,36.663,161.3,37.021C162.283,37.379,163.267,40.321,164.25,42.723C165.233,45.125,166.217,46.987,167.2,47.322C168.183,47.656,169.167,46.463,170.15,43.957C171.133,41.452,172.117,37.634,173.1,32.781C174.083,27.928,175.067,22.041,176.05,19.886C177.033,17.731,178.017,19.308,179,20.412C179.983,21.515,180.967,22.145,181.95,22.086C182.933,22.027,183.917,21.278,184.9,19.473C185.883,17.667,186.867,14.805,187.85,13.805C188.833,12.804,189.817,13.666,190.8,15.1C191.783,16.534,192.767,18.54,193.75,19.66C194.733,20.78,195.717,21.014,196.7,18.679C197.683,16.344,198.667,11.441,199.65,8.233C200.633,5.026,201.617,3.513,202.6,4.019C203.583,4.525,204.567,7.051,205.55,8.614C206.533,10.177,207.517,10.778,208.5,12.372C209.483,13.966,210.467,16.553,211.45,19.029C212.433,21.506,213.417,23.871,214.4,24.104C215.383,24.337,216.367,22.437,217.35,21.057C218.333,19.676,219.317,18.814,220.3,18.136C221.283,17.458,222.267,16.962,223.25,15.289C224.233,13.615,225.217,10.764,226.2,9.232C227.183,7.7,228.167,7.488,229.15,8.349C230.133,9.21,231.117,11.144,232.1,11.699C233.083,12.255,234.067,11.432,234.558,11.02L235.05,10.609" fill="transparent" stroke="#098551" stroke-linecap="round" stroke-linejoin="round" stroke-width="2"/><path d="M2,12.382L2.492,12.201C2.983,12.021,3.967,11.66,4.95,11.8C5.933,11.94,6.917,12.581,7.9,12.52C8.883,12.459,9.867,11.697,10.85,9.927C11.833,8.157,12.817,5.379,13.8,4.903C14.783,4.428,15.767,6.255,16.75,8.667C17.733,11.079,18.717,14.076,19.7,15.086C20.683,16.095,21.667,15.117,22.65,15.515C23.633,15.914,24.617,17.688,25.6,18.293C26.583,18.898,27.567,18.334,28.55,20.05C29.533,21.766,30.517,25.763,31.5,26.295C32.483,26.827,33.467,23.894,34.45,22.609C35.433,21.325,36.417,21.689,37.4,23.231C38.383,24.773,39.367,27.493,40.35,28.773C41.333,30.053,42.317,29.893,43.3,30.463C44.283,31.033,45.267,32.334,46.25,31.482C47.233,30.63,48.217,27.625,49.2,25.953C50.183,24.281,51.167,23.942,52.15,24.75C53.133,25.557,54.117,27.511,55.1,27.823C56.083,28.136,57.067,26.806,58.05,25.979C59.033,25.151,60.017,24.825,61,25.231C61.983,25.637,62.967,26.774,63.95,27.139C64.933,27.504,65.917,27.097,66.9,26.887C67.883,26.677,68.867,26.663,69.85,27.872C70.833,29.082,71.817,31.514,72.8,32.93C73.783,34.345,74.767,34.743,75.75,33.953C76.733,33.162,77.717,31.182,78.7,30.495C79.683,29.808,80.667,30.415,81.65,30.905C82.633,31.395,83.617,31.769,84.6,31.583C85.583,31.397,86.567,30.651,87.55,31.273C88.533,31.895,89.517,33.884,90.5,34.415C91.483,34.947,92.467,34.02,93.45,33.937C94.433,33.854,95.417,34.616,96.4,33.727C97.383,32.839,98.367,30.301,99.35,27.674C100.333,25.048,101.317,22.334,102.3,20.809C103.283,19.285,104.267,18.95,105.25,19.85C106.233,20.751,107.217,22.886,108.2,24.113C109.183,25.339,110.167,25.657,111.15,24.343C112.133,23.028,113.117,20.082,114.1,20.869C115.083,21.655,116.067,26.174,117.05,28.746C118.033,31.319,119.017,31.944,120,31.428C120.983,30.913,121.967,29.256,122.95,28.545C123.933,27.833,124.917,28.067,125.9,33.133C126.883,38.2,127.867,48.1,128.85,50.841C129.833,53.583,130.817,49.165,131.8,47.049C132.783,44.934,133.767,45.12,134.75,44.792C135.733,44.463,136.717,43.62,137.7,42.288C138.683,40.956,139.667,39.135,140.65,40.195C141.633,41.255,142.617,45.196,143.6,45.587C144.583,45.978,145.567,42.819,146.55,42.429C147.533,42.038,148.517,44.416,149.5,43.444C150.483,42.472,151.467,38.149,152.45,37.784C153.433,37.419,154.417,41.011,155.4,42.226C156.383,43.441,157.367,42.278,158.35,40.584C159.333,38.889,160.317,36.663,161.3,37.021C162.283,37.379,163.267,40.321,164.25,42.723C165.233,45.125,166.217,46.987,167.2,47.322C168.183,47.656,169.167,46.463,170.15,43.957C171.133,41.452,172.117,37.634,173.1,32.781C174.083,27.928,175.067,22.041,176.05,19.886C177.033,17.731,178.017,19.308,179,20.412C179.983,21.515,180.967,22.145,181.95,22.086C182.933,22.027,183.917,21.278,184.9,19.473C185.883,17.667,186.867,14.805,187.85,13.805C188.833,12.804,189.817,13.666,190.8,15.1C191.783,16.534,192.767,18.54,193.75,19.66C194.733,20.78,195.717,21.014,196.7,18.679C197.683,16.344,198.667,11.441,199.65,8.233C200.633,5.026,201.617,3.513,202.6,4.019C203.583,4.525,204.567,7.051,205.55,8.614C206.533,10.177,207.517,10.778,208.5,12.372C209.483,13.966,210.467,16.553,211.45,19.029C212.433,21.506,213.417,23.871,214.4,24.104C215.383,24.337,216.367,22.437,217.35,21.057C218.333,19.676,219.317,18.814,220.3,18.136C221.283,17.458,222.267,16.962,223.25,15.289C224.233,13.615,225.217,10.764,226.2,9.232C227.183,7.7,228.167,7.488,229.15,8.349C230.133,9.21,231.117,11.144,232.1,11.699C233.083,12.255,234.067,11.432,234.558,11.02L235.05,10.609L235.05,60L234.558,60C234.067,60,233.083,60,232.1,60C231.117,60,230.133,60,229.15,60C228.167,60,227.183,60,226.2,60C225.217,60,224.233,60,223.25,60C222.267,60,221.283,60,220.3,60C219.317,60,218.333,60,217.35,60C216.367,60,215.383,60,214.4,60C213.417,60,212.433,60,211.45,60C210.467,60,209.483,60,208.5,60C207.517,60,206.533,60,205.55,60C204.567,60,203.583,60,202.6,60C201.617,60,200.633,60,199.65,60C198.667,60,197.683,60,196.7,60C195.717,60,194.733,60,193.75,60C192.767,60,191.783,60,190.8,60C189.817,60,188.833,60,187.85,60C186.867,60,185.883,60,184.9,60C183.917,60,182.933,60,181.95,60C180.967,60,179.983,60,179,60C178.017,60,177.033,60,176.05,60C175.067,60,174.083,60,173.1,60C172.117,60,171.133,60,170.15,60C169.167,60,168.183,60,167.2,60C166.217,60,165.233,60,164.25,60C163.267,60,162.283,60,161.3,60C160.317,60,159.333,60,158.35,60C157.367,60,156.383,60,155.4,60C154.417,60,153.433,60,152.45,60C151.467,60,150.483,60,149.5,60C148.517,60,147.533,60,146.55,60C145.567,60,144.583,60,143.6,60C142.617,60,141.633,60,140.65,60C139.667,60,138.683,60,137.7,60C136.717,60,135.733,60,134.75,60C133.767,60,132.783,60,131.8,60C130.817,60,129.833,60,128.85,60C127.867,60,126.883,60,125.9,60C124.917,60,123.933,60,122.95,60C121.967,60,120.983,60,120,60C119.017,60,118.033,60,117.05,60C116.067,60,115.083,60,114.1,60C113.117,60,112.133,60,111.15,60C110.167,60,109.183,60,108.2,60C107.217,60,106.233,60,105.25,60C104.267,60,103.283,60,102.3,60C101.317,60,100.333,60,99.35,60C98.367,60,97.383,60,96.4,60C95.417,60,94.433,60,93.45,60C92.467,60,91.483,60,90.5,60C89.517,60,88.533,60,87.55,60C86.567,60,85.583,60,84.6,60C83.617,60,82.633,60,81.65,60C80.667,60,79.683,60,78.7,60C77.717,60,76.733,60,75.75,60C74.767,60,73.783,60,72.8,60C71.817,60,70.833,60,69.85,60C68.867,60,67.883,60,66.9,60C65.917,60,64.933,60,63.95,60C62.967,60,61.983,60,61,60C60.017,60,59.033,60,58.05,60C57.067,60,56.083,60,55.1,60C54.117,60,53.133,60,52.15,60C51.167,60,50.183,60,49.2,60C48.217,60,47.233,60,46.25,60C45.267,60,44.283,60,43.3,60C42.317,60,41.333,60,40.35,60C39.367,60,38.383,60,37.4,60C36.417,60,35.433,60,34.45,60C33.467,60,32.483,60,31.5,60C30.517,60,29.533,60,28.55,60C27.567,60,26.583,60,25.6,60C24.617,60,23.633,60,22.65,60C21.667,60,20.683,60,19.7,60C18.717,60,17.733,60,16.75,60C15.767,60,14.783,60,13.8,60C12.817,60,11.833,60,10.85,60C9.867,60,8.883,60,7.9,60C6.917,60,5.933,60,4.95,60C3.967,60,2.983,60,2.492,60L2,60Z" fill="url(#w83jmhswxec)"/></g></svg>